# xmcd
#
# Track frame offsets:
#	150
#	19016
#	39231
#	58494
#
# Disc length: 1010 seconds
#
# Revision: 1
# Processed by: cddbd v1.5.1PL0 Copyright (c) Steve Scherf et al.
# Submitted via: dBpowerAMP V4.0
#
DISCID=2d03f004
DTITLE=Fleetwood Mac - Say You Will (Bonus CD)
DYEAR=2000
DGENRE=Pop
TTITLE0=Love Minus Zero - No Limit
TTITLE1=Not Make Believe
TTITLE2=Peacekeeper (Live From AOL Sessions)
TTITLE3=Say You Will (Live From AOL Sessions)
EXTD=
EXTT0=
EXTT1=
EXTT2=
EXTT3=
PLAYORDER=
